<svg width="23" height="24" viewBox="0 0 23 24" fill="none" xmlns="http://www.w3.org/2000/svg">
<path d="M14.3356 8.41714C14.3356 10.5367 12.6434 12.255 10.5559 12.255C8.46846 12.255 6.77623 10.5367 6.77623 8.41714C6.77623 6.29755 8.46846 4.57929 10.5559 4.57929C12.6434 4.57929 14.3356 6.29755 14.3356 8.41714Z" fill="#093360"/>
<path fill-rule="evenodd" clip-rule="evenodd" d="M16.624 18.8329C14.8882 20.2221 12.7987 20.9807 10.3949 20.9807C4.70032 20.9807 0.0839844 16.2934 0.0839844 10.5112C0.0839844 4.72905 4.70032 0.041687 10.3949 0.041687C16.0894 0.041687 20.7057 4.72905 20.7057 10.5112C20.7057 12.8302 20.0617 14.8639 18.8092 16.5941L22.5899 20.6483C23.1784 21.2794 23.1439 22.2682 22.5128 22.8567C21.8817 23.4452 20.893 23.4107 20.3044 22.7796L16.624 18.8329ZM15.8862 16.3559C17.3309 14.9131 18.1895 12.8613 18.1895 10.5112C18.1895 5.92162 14.5591 2.48026 10.3949 2.48026C6.2306 2.48026 2.55167 5.92162 2.55167 10.5112C2.55167 12.9536 3.49275 15.0738 5.05447 16.5231C5.48215 15.5819 6.16519 14.7644 7.03691 14.1605C8.09726 13.4258 9.3781 13.0477 10.6826 13.0842C11.9871 13.1207 13.2431 13.5698 14.2576 14.3626C14.9515 14.9047 15.5061 15.5871 15.8862 16.3559Z" fill="#093360"/>
</svg>
