<svg width="29" height="35" viewBox="0 0 29 35" fill="none" xmlns="http://www.w3.org/2000/svg">
<path fill-rule="evenodd" clip-rule="evenodd" d="M13.7833 6.87815L4.83469 18.3125H13.3215C14.4887 18.3125 15.3945 19.3311 15.2581 20.4903L14.3455 28.2475L24.1404 15.875H14.8676C13.6947 15.875 12.7872 14.847 12.9327 13.6831L13.7833 6.87815ZM14.1206 1.17383C15.3399 -0.384226 17.8366 0.654274 17.5912 2.61749L16.3402 12.625H26.8277C28.4581 12.625 29.3686 14.507 28.3565 15.7854L14.0476 33.8599C12.8277 35.4008 10.3524 34.3736 10.582 32.4217L11.8596 21.5625H2.16651C0.54112 21.5625 -0.370876 19.6907 0.630878 18.4107L14.1206 1.17383Z" fill="#093360"/>
</svg>
